<?xml version="1.0" encoding="UTF-8" standalone="no"?>
<svg width="118px" height="44px" viewBox="0 0 118 44" version="1.1" xmlns="http://www.w3.org/2000/svg" xmlns:xlink="http://www.w3.org/1999/xlink" xmlns:sketch="http://www.bohemiancoding.com/sketch/ns">
    <!-- Generator: Sketch 3.4 (15575) - http://www.bohemiancoding.com/sketch -->
    <title>host</title>
    <desc>Created with Sketch.</desc>
    <defs></defs>
    <g id="Page-1" stroke="none" stroke-width="1" fill="none" fill-rule="evenodd" sketch:type="MSPage">
        <g id="host" sketch:type="MSArtboardGroup" fill="#FFFFFF">
            <g sketch:type="MSLayerGroup">
                <path d="M38.328125,16.156249 C36.041125,16.156249 33.488125,17.037499 32.953125,19.937499 C32.896125,20.245499 33.099875,20.392499 33.296875,20.437499 L35.640625,20.718749 C35.857625,20.707749 36.004875,20.471999 36.046875,20.249999 C36.246875,19.251999 37.068375,18.781249 37.984375,18.781249 C38.479375,18.781249 39.035125,18.951249 39.328125,19.406249 C39.664125,19.913249 39.640625,20.602499 39.640625,21.187499 L39.640625,21.531249 C38.247625,21.691249 36.413375,21.787999 35.109375,22.374999 C33.604375,23.043999 32.546875,24.405249 32.546875,26.406249 C32.546875,28.970249 34.117625,30.249999 36.140625,30.249999 C37.848625,30.249999 38.792375,29.848749 40.109375,28.468749 C40.546375,29.118749 40.686375,29.413749 41.484375,30.093749 C41.662375,30.189749 41.887875,30.180249 42.046875,30.031249 L42.046875,30.062499 C42.526875,29.625499 43.399625,28.828249 43.890625,28.406249 C44.086625,28.242249 44.043625,27.972999 43.890625,27.749999 C43.451625,27.127999 42.984375,26.625749 42.984375,25.468749 L42.984375,21.624999 C42.984375,19.996999 43.122125,18.495999 41.953125,17.374999 C41.032125,16.467999 39.496125,16.156249 38.328125,16.156249 L38.328125,16.156249 Z M69.828125,16.156249 C67.540125,16.156249 64.989125,17.037499 64.453125,19.937499 C64.396125,20.245499 64.598875,20.392499 64.796875,20.437499 L67.140625,20.718749 C67.357625,20.707749 67.505875,20.471999 67.546875,20.249999 C67.747875,19.251999 68.568375,18.781249 69.484375,18.781249 C69.980375,18.781249 70.535125,18.951249 70.828125,19.406249 C71.163125,19.913249 71.109375,20.602499 71.109375,21.187499 L71.109375,21.531249 C69.716375,21.691249 67.913375,21.787999 66.609375,22.374999 C65.103375,23.043999 64.046875,24.405249 64.046875,26.406249 C64.046875,28.970249 65.618625,30.249999 67.640625,30.249999 C69.346625,30.249999 70.290375,29.848749 71.609375,28.468749 C72.044375,29.118749 72.186375,29.413749 72.984375,30.093749 C73.163375,30.189749 73.387875,30.180249 73.546875,30.031249 L73.546875,30.062499 C74.027875,29.625499 74.899625,28.828249 75.390625,28.406249 C75.586625,28.242249 75.541625,27.972999 75.390625,27.749999 C74.951625,27.127999 74.484375,26.625749 74.484375,25.468749 L74.484375,21.624999 C74.484375,19.996999 74.589875,18.495999 73.421875,17.374999 C72.499875,16.467999 70.996125,16.156249 69.828125,16.156249 L69.828125,16.156249 Z M52.109375,16.281249 C50.631375,16.281249 49.535125,17.026999 48.953125,18.624999 L48.921875,18.624999 L48.921875,16.968749 C48.906875,16.737749 48.718375,16.543249 48.484375,16.531249 L46.234375,16.531249 C45.979375,16.531249 45.765625,16.746999 45.765625,16.999999 L45.765625,29.656249 C45.784625,29.881249 45.974125,30.077749 46.203125,30.093749 L48.609375,30.093749 C48.866375,30.093749 49.077125,29.879999 49.078125,29.624999 L49.078125,22.906249 C49.078125,21.441249 49.007375,19.437499 50.734375,19.437499 C52.439375,19.437499 52.203125,21.496249 52.203125,22.906249 L52.203125,29.624999 C52.203125,29.863999 52.398625,30.077749 52.640625,30.093749 L55.046875,30.093749 C55.302875,30.093749 55.515625,29.879999 55.515625,29.624999 L55.515625,22.906249 C55.515625,22.187249 55.486375,21.139999 55.734375,20.499999 C55.981375,19.859999 56.587875,19.437499 57.171875,19.437499 C57.867875,19.437499 58.399125,19.680249 58.578125,20.531249 C58.690125,21.037249 58.640625,22.374249 58.640625,22.906249 L58.640625,29.624999 C58.640625,29.863999 58.836125,30.077749 59.078125,30.093749 L61.484375,30.093749 C61.740375,30.093749 61.953125,29.879999 61.953125,29.624999 L61.953125,21.624999 C61.953125,20.265999 62.090125,18.723249 61.328125,17.656249 C60.655125,16.698249 59.554875,16.281249 58.546875,16.281249 C57.132875,16.281249 55.817375,17.026999 55.234375,18.624999 C54.561375,17.027999 53.612375,16.281249 52.109375,16.281249 L52.109375,16.281249 Z M93.015625,16.281249 C89.538625,16.281249 87.609375,19.338249 87.609375,23.281249 C87.609375,27.197249 89.517625,30.343749 93.015625,30.343749 C96.380625,30.343749 98.515625,27.269249 98.515625,23.406249 C98.515625,19.412249 96.581625,16.281249 93.015625,16.281249 L93.015625,16.281249 Z M106.73438,16.281249 C105.07338,16.281249 104.12413,17.111749 103.45313,18.843749 L103.42193,18.843749 L103.42193,16.906249 C103.37893,16.710249 103.19442,16.574499 102.98443,16.562499 L100.76568,16.562499 C100.52367,16.562499 100.31893,16.737749 100.29693,16.968749 L100.29693,29.624999 C100.29693,29.863999 100.49343,30.077749 100.73443,30.093749 L103.10943,30.093749 C103.36543,30.093749 103.57417,29.880999 103.57818,29.624999 L103.57818,22.812499 C103.57818,21.958499 103.65038,21.179249 103.98443,20.406249 C104.25343,19.793249 104.77543,19.406249 105.35943,19.406249 C107.01743,19.406249 106.85943,21.426499 106.85943,22.812499 L106.85943,29.687499 C106.88343,29.902499 107.07693,30.079749 107.29693,30.093749 L109.70318,30.093749 C109.94017,30.093749 110.14392,29.913499 110.17193,29.687499 L110.17193,21.718749 C110.17193,20.493749 110.17493,18.792249 109.54693,17.781249 C108.87393,16.688249 107.80843,16.281249 106.73443,16.281249 L106.73438,16.281249 Z M77.859375,16.499999 C77.615375,16.499999 77.422875,16.693749 77.421875,16.968749 L77.421875,18.781249 C77.422875,19.052249 77.609375,19.247999 77.859375,19.249999 L81.984375,19.249999 L77.265625,26.218749 C76.977625,26.667749 76.953125,27.176749 76.953125,27.468749 L76.953125,29.312499 C76.953125,29.577499 77.241625,29.866749 77.515625,29.718749 C80.204625,28.250749 83.427375,28.381499 85.859375,29.687499 C86.154375,29.848499 86.453125,29.546249 86.453125,29.281249 L86.453125,27.343749 C86.429125,27.084749 86.327625,26.835249 86.015625,26.656249 C84.635625,25.862249 83.033625,25.619249 81.515625,25.656249 L85.609375,19.656249 C85.988375,19.117249 86.200125,18.792249 86.203125,18.531249 L86.203125,16.968749 C86.203125,16.699749 86.019625,16.499999 85.765625,16.499999 L77.859375,16.499999 L77.859375,16.499999 Z M93.015625,18.874999 C93.777625,18.874999 94.339375,19.214749 94.609375,20.093749 C94.922375,21.106749 94.953125,22.371499 94.953125,23.437499 C94.953125,25.061499 94.877625,27.749999 93.015625,27.749999 C91.132625,27.749999 91.140625,24.421999 91.140625,22.874999 C91.140625,21.331999 91.244625,18.874999 93.015625,18.874999 L93.015625,18.874999 Z M39.609375,23.499999 L39.609375,24.031249 C39.609375,24.992249 39.643875,25.801249 39.171875,26.656249 C38.789875,27.351249 38.189625,27.781249 37.515625,27.781249 C36.595625,27.781249 36.046875,27.034749 36.046875,25.968749 C36.046875,23.867749 37.872375,23.499999 39.609375,23.499999 L39.609375,23.499999 Z M71.109375,23.499999 L71.109375,24.031249 C71.109375,24.992249 71.143875,25.801249 70.671875,26.656249 C70.289875,27.351249 69.692625,27.781249 69.015625,27.781249 C68.094625,27.781249 67.546875,27.034749 67.546875,25.968749 C67.546875,23.867749 69.370375,23.499999 71.109375,23.499999 L71.109375,23.499999 Z" id="path243" sketch:type="MSShapeGroup"></path>
                <path d="M86.703125,30.499999 L86.703125,32.312499 L87.921875,32.312499 L87.921875,30.499999 L86.703125,30.499999 L86.703125,30.499999 Z M51.359375,30.812499 L51.359375,43.718749 L52.484375,43.718749 L52.484375,42.562499 C52.724375,43.020499 52.997125,43.362749 53.328125,43.593749 C53.658125,43.824749 54.037125,43.937499 54.453125,43.937499 C55.279125,43.937499 55.992375,43.515249 56.609375,42.656249 C57.226375,41.797249 57.546875,40.551749 57.546875,38.968749 C57.546875,37.931749 57.413625,37.071749 57.140625,36.343749 C56.867625,35.616749 56.502875,35.076749 56.046875,34.718749 C55.590875,34.361749 55.072625,34.156249 54.515625,34.156249 C54.117625,34.156249 53.745875,34.260749 53.421875,34.468749 C53.096875,34.676749 52.834125,35.015499 52.578125,35.437499 L52.578125,30.812499 L51.359375,30.812499 L51.359375,30.812499 Z M62.921875,33.843749 C62.073875,33.843749 61.400875,34.094749 60.921875,34.593749 C60.442875,35.091749 60.203125,35.734249 60.203125,36.531249 C60.203125,36.994249 60.307375,37.385999 60.484375,37.749999 C60.661375,38.113999 60.915375,38.407999 61.234375,38.624999 C61.554375,38.841999 62.192625,39.126499 63.140625,39.437499 C63.796625,39.648499 64.188375,39.827749 64.359375,39.968749 C64.607375,40.173749 64.734375,40.442499 64.734375,40.812499 C64.734375,41.240499 64.585875,41.596999 64.296875,41.874999 C64.007875,42.153999 63.606125,42.281249 63.078125,42.281249 C62.550125,42.281249 62.115875,42.133499 61.796875,41.812499 C61.477875,41.491499 61.306375,41.003749 61.234375,40.343749 L60.015625,40.593749 C60.291625,42.598749 61.291625,43.594749 63.015625,43.593749 C63.935625,43.593749 64.639875,43.333249 65.171875,42.781249 C65.703875,42.229249 65.984375,41.486749 65.984375,40.593749 C65.984375,40.111749 65.899375,39.693749 65.734375,39.343749 C65.569375,38.994749 65.342875,38.734249 65.046875,38.531249 C64.749875,38.329249 64.088125,38.059749 63.078125,37.718749 C62.344125,37.461749 61.914625,37.273249 61.765625,37.156249 C61.516625,36.958249 61.390625,36.688749 61.390625,36.343749 C61.390625,35.992749 61.506625,35.693749 61.765625,35.468749 C62.024625,35.244749 62.424125,35.124999 62.953125,35.124999 C63.885125,35.124999 64.405625,35.636249 64.515625,36.656249 L65.703125,36.468749 C65.621125,35.823749 65.480625,35.314749 65.265625,34.968749 C65.050625,34.622749 64.733125,34.330999 64.328125,34.124999 C63.922125,33.919999 63.456875,33.843749 62.921875,33.843749 L62.921875,33.843749 Z M70.390625,33.843749 C69.414625,33.843749 68.589125,34.246749 67.953125,35.093749 C67.316125,35.940749 67.015625,37.169249 67.015625,38.781249 C67.015625,40.334249 67.322125,41.550999 67.953125,42.374999 C68.584125,43.197999 69.401875,43.593749 70.421875,43.593749 C71.231875,43.593749 71.905125,43.350749 72.453125,42.843749 C73.002125,42.336749 73.400375,41.590749 73.609375,40.593749 L72.359375,40.374999 C72.000375,41.652999 71.337875,42.279249 70.421875,42.281249 C69.837875,42.281249 69.361125,42.032999 68.953125,41.499999 C68.545125,40.965999 68.314625,40.173999 68.265625,39.124999 L73.640625,39.124999 L73.640625,38.687499 C73.640625,37.110499 73.326125,35.926749 72.703125,35.093749 C72.079125,34.260749 71.322625,33.843749 70.390625,33.843749 L70.390625,33.843749 Z M77.796875,33.843749 C77.504875,33.843749 77.249625,33.942249 77.015625,34.156249 C76.781625,34.370249 76.515375,34.811749 76.234375,35.468749 L76.234375,34.031249 L75.140625,34.031249 L75.140625,43.374999 L76.359375,43.374999 L76.359375,38.499999 C76.359375,37.819999 76.423125,37.166499 76.578125,36.562499 C76.666125,36.216499 76.831875,35.942999 77.046875,35.749999 C77.261875,35.556999 77.506625,35.468749 77.765625,35.468749 C78.052625,35.468749 78.337625,35.583499 78.640625,35.812499 L79.046875,34.343749 C78.621875,34.003749 78.204875,33.843749 77.796875,33.843749 L77.796875,33.843749 Z M92.734375,33.843749 C91.769375,33.843749 90.974375,34.250499 90.359375,35.062499 C89.745375,35.874499 89.421875,37.094749 89.421875,38.718749 C89.421875,40.330749 89.750375,41.550999 90.359375,42.374999 C90.969375,43.197999 91.729875,43.593749 92.671875,43.593749 C93.448875,43.593749 94.117875,43.304749 94.671875,42.718749 C95.226875,42.132749 95.565125,41.270249 95.703125,40.156249 L94.515625,39.968749 C94.427625,40.765749 94.219625,41.338749 93.890625,41.718749 C93.561625,42.096749 93.166125,42.281249 92.703125,42.281249 C92.113125,42.281249 91.611375,42.006499 91.234375,41.437499 C90.857375,40.869499 90.671875,39.959499 90.671875,38.687499 C90.671875,37.455499 90.871625,36.565999 91.265625,35.999999 C91.659625,35.433999 92.164625,35.124999 92.765625,35.124999 C93.167625,35.124999 93.510875,35.281749 93.796875,35.593749 C94.084875,35.905749 94.275625,36.401249 94.390625,37.031249 L95.578125,36.781249 C95.435125,35.796249 95.119375,35.054499 94.609375,34.562499 C94.098375,34.069499 93.478375,33.843749 92.734375,33.843749 L92.734375,33.843749 Z M99.70313,33.843749 C98.727125,33.843749 97.902625,34.246749 97.265625,35.093749 C96.628625,35.940749 96.328125,37.169249 96.328125,38.781249 C96.328125,40.334249 96.634625,41.550999 97.265625,42.374999 C97.897625,43.197999 98.714375,43.593749 99.73438,43.593749 C100.54337,43.593749 101.21662,43.350749 101.76563,42.843749 C102.31363,42.336749 102.71188,41.590749 102.92188,40.593749 L101.67188,40.374999 C101.31288,41.652999 100.67963,42.279249 99.76563,42.281249 C99.18162,42.281249 98.673625,42.032999 98.265625,41.499999 C97.857625,40.965999 97.628125,40.173999 97.578125,39.124999 L102.95313,39.124999 L102.95313,38.687499 C102.95313,37.110499 102.63863,35.926749 102.01563,35.093749 C101.39363,34.260749 100.63513,33.843749 99.70313,33.843749 L99.70313,33.843749 Z M106.92188,33.843749 C106.07287,33.843749 105.40088,34.094749 104.92188,34.593749 C104.44187,35.091749 104.20313,35.734249 104.20313,36.531249 C104.20313,36.994249 104.27613,37.385999 104.45313,37.749999 C104.62913,38.113999 104.88313,38.407999 105.20313,38.624999 C105.52213,38.841999 106.16138,39.126499 107.10938,39.437499 C107.76438,39.648499 108.18837,39.827749 108.35938,39.968749 C108.60738,40.173749 108.73438,40.442499 108.73438,40.812499 C108.73438,41.240499 108.58588,41.596999 108.29688,41.874999 C108.00888,42.153999 107.60513,42.281249 107.07813,42.281249 C106.54913,42.281249 106.11588,42.133499 105.79688,41.812499 C105.47888,41.491499 105.27412,41.003749 105.20313,40.343749 L103.98438,40.593749 C104.25938,42.598749 105.25838,43.594749 106.98438,43.593749 C107.90538,43.593749 108.63988,43.333249 109.17188,42.781249 C109.70387,42.229249 109.98438,41.486749 109.98438,40.593749 C109.98438,40.111749 109.89938,39.692749 109.73438,39.343749 C109.56937,38.994749 109.31262,38.734249 109.01563,38.531249 C108.71962,38.329249 108.08813,38.059749 107.07813,37.718749 C106.34413,37.461749 105.88237,37.273249 105.73438,37.156249 C105.48538,36.958249 105.35938,36.688749 105.35938,36.343749 C105.35938,35.992749 105.50663,35.692749 105.76563,35.468749 C106.02463,35.244749 106.42512,35.124999 106.95313,35.124999 C107.88412,35.124999 108.40563,35.636249 108.51563,36.656249 L109.70313,36.468749 C109.62013,35.823749 109.48162,35.314749 109.26563,34.968749 C109.05062,34.622749 108.73313,34.330999 108.32813,34.124999 C107.92313,33.919999 107.45588,33.843749 106.92188,33.843749 L106.92188,33.843749 Z M79.046875,34.031249 L81.765625,43.374999 L82.921875,43.374999 L85.640625,34.031249 L84.390625,34.031249 L82.796875,39.749999 C82.603875,40.441999 82.433125,41.038249 82.328125,41.531249 C82.195125,40.910249 82.067625,40.257999 81.890625,39.624999 L80.328125,34.031249 L79.046875,34.031249 L79.046875,34.031249 Z M86.703125,34.031249 L86.703125,43.374999 L87.921875,43.374999 L87.921875,34.031249 L86.703125,34.031249 L86.703125,34.031249 Z M46.640625,34.156249 C45.673625,34.156249 44.895625,34.590499 44.265625,35.437499 C43.634625,36.284499 43.296875,37.512999 43.296875,39.124999 C43.296875,40.677999 43.609375,41.864499 44.234375,42.687499 C44.859375,43.510499 45.693125,43.937499 46.703125,43.937499 C47.505125,43.937499 48.160125,43.663249 48.703125,43.156249 C49.245125,42.649249 49.620125,41.903249 49.828125,40.906249 L48.609375,40.718749 C48.254375,41.996749 47.609125,42.622999 46.703125,42.624999 C46.124125,42.624999 45.638375,42.376749 45.234375,41.843749 C44.830375,41.309749 44.595875,40.517749 44.546875,39.468749 L49.859375,39.468749 L49.890625,39.031249 C49.890625,37.454249 49.570125,36.239249 48.953125,35.406249 C48.336125,34.573249 47.562625,34.156249 46.640625,34.156249 L46.640625,34.156249 Z M32.921875,34.374999 L35.109375,43.718749 L36.390625,43.718749 L37.828125,36.531249 L38.078125,38.124999 L39.234375,43.718749 L40.484375,43.718749 L42.703125,34.374999 L41.546875,34.374999 L40.328125,39.781249 L39.921875,41.593749 L39.546875,39.781249 L38.484375,34.374999 L37.234375,34.374999 L36.109375,39.843749 L35.734375,41.781249 L35.296875,39.781249 L34.171875,34.374999 L32.921875,34.374999 L32.921875,34.374999 Z M110.70313,34.468749 L110.70313,34.906249 L111.89063,34.906249 L111.89063,38.031249 L112.35938,38.031249 L112.35938,34.906249 L113.54688,34.906249 L113.54688,34.468749 L110.70313,34.468749 L110.70313,34.468749 Z M114.01563,34.468749 L114.01563,38.031249 L114.45313,38.031249 L114.45313,34.999999 L115.48438,38.031249 L115.92188,38.031249 L116.95313,35.062499 L116.95313,38.031249 L117.42188,38.031249 L117.42188,34.468749 L116.76563,34.468749 L115.92188,36.968749 C115.83688,37.218749 115.77638,37.399249 115.73438,37.531249 L115.54688,36.999999 L114.70313,34.468749 L114.01563,34.468749 L114.01563,34.468749 Z M70.359375,35.124999 C70.966375,35.124999 71.467375,35.418999 71.859375,35.999999 C72.129375,36.398999 72.304375,37.003499 72.359375,37.812499 L68.328125,37.812499 C68.366125,36.991499 68.598375,36.358999 68.984375,35.874999 C69.370375,35.390999 69.814375,35.124999 70.359375,35.124999 L70.359375,35.124999 Z M99.67188,35.124999 C100.27688,35.124999 100.77988,35.418999 101.17188,35.999999 C101.44088,36.398999 101.61687,37.003499 101.67188,37.812499 L97.640625,37.812499 C97.678625,36.991499 97.909875,36.358999 98.296875,35.874999 C98.681875,35.390999 99.12587,35.124999 99.67188,35.124999 L99.67188,35.124999 Z M46.640625,35.468749 C47.240625,35.468749 47.722375,35.762749 48.109375,36.343749 C48.376375,36.742749 48.554375,37.347249 48.609375,38.156249 L44.640625,38.156249 C44.678625,37.335249 44.881625,36.671499 45.265625,36.187499 C45.647625,35.703499 46.099625,35.468749 46.640625,35.468749 L46.640625,35.468749 Z M54.390625,35.468749 C54.932625,35.468749 55.393625,35.769749 55.765625,36.343749 C56.137625,36.918749 56.296875,37.805249 56.296875,39.031249 C56.296875,40.227249 56.120375,41.117749 55.734375,41.718749 C55.348375,42.319749 54.888625,42.624999 54.390625,42.624999 C54.024625,42.624999 53.691625,42.501999 53.390625,42.249999 C53.088625,41.997999 52.867125,41.636249 52.703125,41.156249 C52.539125,40.675249 52.453125,39.935749 52.453125,38.968749 C52.453125,37.830749 52.655875,36.975999 53.046875,36.374999 C53.437875,35.773999 53.892625,35.468749 54.390625,35.468749 L54.390625,35.468749 Z" id="path257" sketch:type="MSShapeGroup"></path>
                <path d="M15.40625,25.5625 L10.75,27.5625 L15.0625,29.40625 L20.0625,27.5625 L15.40625,25.5625 L15.40625,25.5625 Z M8.40625,28.0625 L8.25,37.0625 L15.0625,40.0625 L15.0625,30.71875 L8.40625,28.0625 L8.40625,28.0625 Z M22.40625,28.0625 L16.25,30.40625 L16.25,39.21875 L22.40625,36.71875 L22.40625,28.0625 L22.40625,28.0625 Z" id="polygon287" sketch:type="MSShapeGroup"></path>
                <path d="M29.75,0.0625 L25.0625,2.0625 L29.40625,3.90625 L34.40625,2.0625 L29.75,0.0625 L29.75,0.0625 Z M23.25,2.71875 L23.25,11.71875 L29.0625,13.40625 L29.25,5.21875 L23.25,2.71875 L23.25,2.71875 Z M36.25,3.21875 L30.75,5.5625 L30.75,14.40625 L36.25,11.90625 L36.25,3.21875 L36.25,3.21875 Z" id="polygon311" sketch:type="MSShapeGroup"></path>
                <path d="M7.734375,12.7295 L3.078125,14.7295 L7.390625,16.57325 L12.390625,14.7295 L7.734375,12.7295 L7.734375,12.7295 Z M0.734375,15.2295 L0.578125,24.2295 L7.390625,27.2295 L7.390625,17.88575 L0.734375,15.2295 L0.734375,15.2295 Z M14.734375,15.2295 L8.578125,17.57325 L8.578125,26.38575 L14.734375,23.88575 L14.734375,15.2295 L14.734375,15.2295 Z" id="use3387" sketch:type="MSShapeGroup"></path>
                <path d="M22.73425,12.396999 L18.078,14.396999 L22.3905,16.240749 L27.3905,14.396999 L22.73425,12.396999 L22.73425,12.396999 Z M15.73425,14.896999 L15.578,23.896999 L22.3905,26.896999 L22.3905,17.553249 L15.73425,14.896999 L15.73425,14.896999 Z M29.73425,14.896999 L23.578,17.240749 L23.578,26.053249 L29.73425,23.553249 L29.73425,14.896999 L29.73425,14.896999 Z" id="use3389" sketch:type="MSShapeGroup"></path>
                <path d="M44.401375,0.0625 L39.745125,2.0625 L44.057625,3.90625 L49.057625,2.0625 L44.401375,0.0625 L44.401375,0.0625 Z M37.401375,2.5625 L37.245125,11.5625 L44.057625,14.5625 L44.057625,5.21875 L37.401375,2.5625 L37.401375,2.5625 Z M51.401375,2.5625 L45.245125,4.90625 L45.245125,13.71875 L51.401375,11.21875 L51.401375,2.5625 L51.401375,2.5625 Z" id="use3391" sketch:type="MSShapeGroup"></path>
            </g>
        </g>
    </g>
</svg>