<?xml version="1.0" encoding="UTF-8" standalone="no"?>
<svg width="641px" height="174px" viewBox="0 0 641 174" version="1.1" xmlns="http://www.w3.org/2000/svg" xmlns:xlink="http://www.w3.org/1999/xlink" xmlns:sketch="http://www.bohemiancoding.com/sketch/ns">
    <!-- Generator: Sketch 3.4 (15575) - http://www.bohemiancoding.com/sketch -->
    <title>GitHub</title>
    <desc>Created with Sketch.</desc>
    <defs></defs>
    <g id="Page-1" stroke="none" stroke-width="1" fill="none" fill-rule="evenodd" sketch:type="MSPage">
        <path d="M586.218665,144.918663 C575.790666,144.60133 568.717332,139.86933 568.717332,139.86933 L568.717332,89.6639979 C568.717332,89.6639979 575.694666,85.3866647 584.255999,84.6213314 C595.082665,83.6519981 605.515998,86.9226647 605.515998,112.749331 C605.515998,139.983997 600.806665,145.358663 586.218665,144.918663 M598.077332,55.5946655 C581.001332,55.5946655 569.386666,63.2133319 569.386666,63.2133319 L569.386666,9.52933327 C569.386666,8.12933331 568.267999,7 566.886666,7 L536.504,7 C535.122667,7 534,8.12933331 534,9.52933327 L534,168.066663 C534,169.465329 535.122667,170.603996 536.508,170.603996 L557.586666,170.603996 C558.535999,170.603996 559.254666,170.113329 559.786666,169.257329 C560.309333,168.405329 561.066666,161.946663 561.066666,161.946663 C561.066666,161.946663 573.489332,173.721329 597.009332,173.721329 C624.619998,173.721329 640.454664,159.715996 640.454664,110.847997 C640.454664,61.9799986 615.165331,55.5946655 598.077332,55.5946655 Z M516.281331,59 L486.215998,59 C484.837332,59 483.714665,60.1373333 483.714665,61.5346666 L483.714665,139.270665 C483.714665,139.270665 476.077332,144.859998 465.235999,144.859998 C454.395999,144.859998 451.518666,139.939998 451.518666,129.325332 L451.518666,61.5346666 C451.518666,60.1373333 450.398666,59 449.018666,59 L418.505333,59 C417.128,59 416,60.1373333 416,61.5346666 L416,134.458665 C416,165.986664 433.572,173.699997 457.745332,173.699997 C477.575998,173.699997 493.565331,162.745331 493.565331,162.745331 C493.565331,162.745331 494.326665,168.518664 494.670665,169.202664 C495.015998,169.885331 495.913331,170.575997 496.882665,170.575997 L516.294664,170.489331 C517.671997,170.489331 518.799997,169.351997 518.799997,167.958664 L518.790664,61.5346666 C518.790664,60.1373333 517.666664,59 516.281331,59 Z M400.818664,12.5293333 C400.818664,11.1293333 399.70933,10 398.32133,10 L368.023998,10 C366.639998,10 365.514665,11.1293333 365.514665,12.5293333 C365.514665,12.5359999 365.522665,71.0799985 365.522665,71.0799985 L318.297332,71.0799985 L318.297332,12.5293333 C318.297332,11.1293333 317.182666,10 315.797333,10 L285.502667,10 C284.124,10 283,11.1293333 283,12.5293333 L283,171.066663 C283,172.465329 284.124,173.603996 285.502667,173.603996 L315.797333,173.603996 C317.182666,173.603996 318.297332,172.465329 318.297332,171.066663 L318.297332,103.254664 L365.522665,103.254664 C365.522665,103.254664 365.441331,171.061329 365.441331,171.066663 C365.441331,172.465329 366.565331,173.603996 367.950665,173.603996 L398.318664,173.603996 C399.706664,173.603996 400.815997,172.465329 400.818664,171.066663 L400.818664,12.5293333 Z M265.863998,58.7279992 L243.137332,58.7279992 C243.137332,58.7279992 243.103999,28.7106666 243.103999,28.704 C243.103999,27.5666667 242.517332,27 241.203999,27 L210.233333,27 C209.029333,27 208.384,27.5293333 208.384,28.6866666 L208.384,59.7119992 C208.384,59.7119992 192.862667,63.4586658 191.813333,63.7613324 C190.769333,64.0653324 190,65.0293324 190,66.1786657 L190,85.6746652 C190,87.0773318 191.118667,88.2079985 192.504,88.2079985 L208.384,88.2079985 L208.384,135.113331 C208.384,169.951996 232.821332,173.37333 249.310665,173.37333 C256.845332,173.37333 265.858665,170.954663 267.346665,170.40533 C268.246665,170.074663 268.770665,169.142663 268.770665,168.131996 L268.794665,146.683997 C268.794665,145.28533 267.613331,144.151997 266.282665,144.151997 C264.958665,144.151997 261.570665,144.691997 258.082665,144.691997 C246.919999,144.691997 243.137332,139.501331 243.137332,132.782664 C243.137332,126.069331 243.135999,88.2079985 243.135999,88.2079985 L265.863998,88.2079985 C267.249331,88.2079985 268.371998,87.0773318 268.371998,85.6746652 L268.371998,61.2546658 C268.371998,59.8546658 267.249331,58.7279992 265.863998,58.7279992 Z M178.903999,138.015597 L178.903999,64.8342654 C178.903999,63.4449321 177.782666,62.3089321 176.397332,62.3089321 L146.196,62.3089321 C144.810667,62.3089321 143.570667,63.7382654 143.570667,65.1262654 L143.570667,169.974263 C143.570667,173.054263 145.490667,173.971596 147.976,173.971596 L175.186666,173.971596 C178.171999,173.971596 178.903999,172.504929 178.903999,169.924929 L178.903999,138.015597 Z M181.070666,33.7239995 C181.070666,22.8146664 172.323999,14 161.533333,14 C150.753333,14 142,22.8146664 142,33.7239995 C142,44.6226659 150.753333,53.4626657 161.533333,53.4626657 C172.323999,53.4626657 181.070666,44.6226659 181.070666,33.7239995 Z M123.32933,74.1159981 L69.5213316,74.1159981 C68.1333316,74.1159981 67.006665,75.2426648 67.006665,76.6319981 L67.006665,102.938664 C67.006665,104.326664 68.1333316,105.457331 69.5213316,105.457331 L90.5119977,105.457331 L90.5119977,138.142663 C90.5119977,138.142663 85.7986645,139.74933 72.7679982,139.74933 C57.3946652,139.74933 35.9186658,134.131997 35.9186658,86.9066645 C35.9186658,39.6733323 58.2813319,33.4586658 79.275998,33.4586658 C97.4493309,33.4586658 105.278664,36.6573324 110.259997,38.199999 C111.825331,38.6786657 113.273331,37.1199991 113.273331,35.7319991 L119.275997,10.3133331 C119.275997,9.66266643 119.055997,8.87999978 118.314664,8.34933312 C116.291997,6.90533316 103.949331,0 72.7679982,0 C36.8466657,0 0,15.2826663 0,88.7493311 C0,162.217329 42.1866656,173.165329 77.7359981,173.165329 C107.170664,173.165329 125.026664,160.587996 125.026664,160.587996 C125.762664,160.181329 125.842664,159.151996 125.842664,158.681329 L125.842664,76.6319981 C125.842664,75.2426648 124.71733,74.1159981 123.32933,74.1159981 Z" id="GitHub" fill="#FFFFFF" sketch:type="MSShapeGroup"></path>
    </g>
</svg>