<?xml version="1.0" encoding="utf-8"?>
<!-- Generator: Adobe Illustrator 17.0.0, SVG Export Plug-In . SVG Version: 6.00 Build 0)  -->
<!DOCTYPE svg PUBLIC "-//W3C//DTD SVG 1.1//EN" "http://www.w3.org/Graphics/SVG/1.1/DTD/svg11.dtd">
<svg version="1.1" id="Capa_1" xmlns="http://www.w3.org/2000/svg" xmlns:xlink="http://www.w3.org/1999/xlink" x="0px" y="0px"
	 width="490.539px" height="233.101px" viewBox="-195.238 -91.538 490.539 233.101"
	 enable-background="new -195.238 -91.538 490.539 233.101" xml:space="preserve">
<g>
	<path fill="#FFFFFF" d="M241.755,38.864c-3.098,3.722-5.753,7.529-9.047,10.667c-2.62,2.499-5.804,4.672-9.113,6.131
		c-6.991,3.083-14.263,0.709-18.648-5.567c-1.293-1.851-2.283-3.923-3.666-5.698c-0.724-0.925-1.921-1.861-3.028-2.047
		c-4.451-0.749-8.987-1.031-13.433-1.821c-9.41-1.67-16.35,2.479-22.249,9.138c-2.359,2.665-4.602,5.462-6.659,8.363
		c-6.126,8.65-14.856,12.176-25.005,12.955c-1.227,0.096-1.941,0.422-2.595,1.489c-5.135,8.348-11.592,15.434-20.031,20.584
		c-7.74,4.722-16.118,6.327-25.055,5.105c-4.084-0.558-7.614-2.344-10.385-5.376c-4.813-5.271-8.112-11.401-9.304-18.462
		c-1.484-8.786,4.335-16.657,13.362-18.497c7.317-1.494,14.63-0.714,21.902,0.236c7.534,0.986,15.027,2.288,22.521,3.551
		c1.479,0.246,2.042-0.287,2.575-1.539c5.16-12.105,8.625-24.673,10.259-37.729c1.348-10.762,2.193-21.56,1.232-32.413
		c-1.403-15.867-4.763-31.256-11.461-45.801c-2.173-4.717-5.004-8.977-8.912-12.452c-5.653-5.029-11.929-4.491-16.556,1.534
		c-3.163,4.119-4.743,8.922-5.421,14.026C90.946-39.012,91.504-23.281,93.672-7.6c0.971,7.046,2.394,14.031,3.696,21.032
		c0.699,3.767-0.815,6.583-4.119,7.287c-3.073,0.654-5.613-1.423-6.442-5.1c-4.129-18.266-6.211-36.753-5.688-55.482
		c0.231-8.348,0.508-16.742,3.244-24.774c1.831-5.376,4.431-10.315,8.791-14.147c8.605-7.564,19.709-7.619,28.395-0.126
		c6.271,5.411,10.521,12.221,13.609,19.805c8.509,20.871,12.261,42.542,11.114,65.087c-0.935,18.346-4.345,36.14-11.28,53.495
		c4.758-1.026,8.595-3.058,11.477-6.809c2.67-3.48,5.316-6.991,8.198-10.295c5.049-5.794,11.119-10.224,18.668-12.125
		c2.681-0.674,5.602-0.895,8.353-0.659c6.478,0.553,12.935,1.388,19.367,2.339c4.079,0.598,7.172,2.907,9.279,6.498
		c1.041,1.77,2.102,3.535,3.249,5.24c1.695,2.535,3.822,3.214,6.553,1.831c1.745-0.885,3.621-1.926,4.818-3.4
		c3.183-3.913,6.065-8.077,8.962-12.216c0.342-0.493,0.302-1.604-0.025-2.168c-8.052-13.916-10.969-29.275-12.472-44.971
		c-1.237-12.945-0.885-25.885,1.227-38.75c0.996-6.06,2.696-11.889,5.874-17.195c5.723-9.55,16.692-9.832,22.963-0.609
		c3.641,5.351,5.23,11.446,6.065,17.723c3.344,25.206,0.674,49.889-6.809,74.105c-0.925,3.002-2.263,5.874-3.319,8.836
		c-0.216,0.604-0.277,1.554,0.055,2.017c2.535,3.546,5.522,6.618,9.435,8.7c2.6,1.383,5.135,1.494,7.529-0.307
		c2.077-1.559,4.074-3.234,6.035-4.944c2.852-2.484,6-2.565,8.192-0.116c2.072,2.318,1.816,5.698-0.895,7.986
		c-2.972,2.51-5.985,5.044-9.279,7.076c-4.466,2.751-9.349,2.786-14.233,0.865c-4.285-1.69-7.901-4.36-11.074-7.649
		C242.62,39.905,242.112,39.272,241.755,38.864z M239.512,15.71c0.387-0.02,0.769-0.045,1.157-0.065
		c1.474-6.317,3.224-12.583,4.37-18.955c3.038-16.858,4.491-33.816,1.901-50.9c-0.744-4.893-1.665-9.747-4.617-13.891
		c-1.574-2.213-2.942-2.132-4.37,0.146c-0.543,0.865-1.026,1.78-1.463,2.706c-2.831,6.06-3.717,12.593-4.285,19.141
		c-1.408,16.209-0.78,32.317,3.274,48.154C236.651,6.642,238.154,11.159,239.512,15.71z M117.384,69.874
		c-8.504-1.287-16.38-2.691-24.316-3.591c-4.255-0.483-8.63-0.392-12.91-0.03c-5.18,0.438-7.287,3.827-5.437,8.68
		c1.207,3.168,2.982,6.141,4.732,9.063c1.111,1.856,2.862,3.329,5.12,3.435c3.128,0.146,6.332,0.302,9.394-0.201
		c7.141-1.177,12.593-5.492,17.527-10.461C113.497,74.757,115.202,72.454,117.384,69.874z"/>
	<path fill="#FFFFFF" d="M-95.661,83.584c5.502-1.363,10.617-2.585,15.701-3.903c24.396-6.337,48.546-13.478,72.043-22.666
		c12.97-5.074,25.206-11.698,37.392-18.397c0.719-0.397,1.423-0.825,2.158-1.197c2.781-1.403,5.889-0.558,7.348,1.976
		c1.504,2.615,0.664,5.874-2.178,7.418c-7.156,3.898-14.343,7.75-21.585,11.482C-4.291,68.355-25.061,75.135-46.023,81.29
		c-15.691,4.607-31.573,8.565-47.37,12.809c-0.523,0.141-1.046,0.292-1.539,0.433c0,3.229-0.03,6.372,0.005,9.515
		c0.08,7.267,0.412,14.544,0.186,21.801c-0.106,3.42-0.815,6.98-2.037,10.174c-2.027,5.296-7.151,6.95-12.181,4.29
		c-1.735-0.915-3.38-2.122-4.818-3.465c-3.002-2.806-6-5.653-8.716-8.731c-6.166-6.98-13.237-12.93-20.615-18.537
		c-1.795-1.363-3.757-2.515-5.678-3.696c-2.55-1.569-5.25-2.459-8.348-2.344c-1.876,0.07-3.832-0.317-5.653-0.85
		c-2.706-0.79-4.411-3.284-4.23-5.663c0.206-2.681,2.052-4.898,4.888-5.341c1.79-0.282,3.817-0.518,5.467,0.035
		c4.471,1.504,8.982,1.262,13.428,0.629c12.321-1.755,24.603-3.797,36.994-5.738c-0.337-20.499-0.664-40.414-0.996-60.677
		c-0.699,0.679-1.267,1.217-1.821,1.765c-16.918,16.677-35.269,31.488-56.02,43.205c-7.408,4.184-15.455,6.633-23.531,9.017
		c-2.676,0.79-5.547-0.925-6.367-3.53c-0.875-2.781,0.453-5.658,3.284-6.669c3.028-1.081,6.126-1.966,9.193-2.937
		c9.933-3.143,18.548-8.766,27.057-14.529c17.456-11.819,33.162-25.674,47.365-41.234c0.739-0.81,1.227-2.132,1.287-3.244
		c0.82-15.54,1.282-31.105,2.364-46.625c0.885-12.648,2.54-25.246,6.905-37.266c1.252-3.44,2.872-6.865,4.944-9.872
		c5.356-7.78,15.314-7.287,20.157,0.865c3.168,5.331,4.813,11.235,5.311,17.351c1.247,15.248-1.891,29.853-7.187,44.04
		C-79.261-10.416-85.879,1.99-95.223,12.828c-0.629,0.729-0.915,1.987-0.905,2.997c0.111,19.478,0.297,38.951,0.453,58.429
		C-95.636,77.262-95.661,80.274-95.661,83.584z M-95.46-5c0.659-1.001,1.086-1.579,1.443-2.198
		c8.675-14.927,14.429-30.814,16.209-48.089c0.81-7.805,0.151-15.319-2.927-22.551c-0.458-1.071-1.222-2.012-2.087-3.41
		c-0.996,1.529-1.78,2.555-2.374,3.681c-3.43,6.518-4.868,13.634-6.136,20.791c-2.756,15.57-3.324,31.332-4.114,47.078
		C-95.52-8.299-95.46-6.896-95.46-5z M-134.868,102.543c11.26,7.559,19.347,17.904,29.104,27.218c0-11.306,0-21.922,0-32.609
		C-115.531,98.963-124.905,100.698-134.868,102.543z"/>
	<path fill="#FFFFFF" d="M-45.842,30.219c0.785-2.67,1.489-5.09,2.203-7.504c0.251-0.85,0.458-1.725,0.805-2.54
		c1.992-4.642,6.925-5.507,10.239-1.71c1.479,1.695,2.676,3.641,3.913,5.527c1.076,1.634,2.434,1.881,3.737,0.578
		c1.725-1.73,3.475-3.535,4.753-5.592c4.124-6.649,6.367-14.067,8.132-21.62c0.246-1.066-0.111-2.298-0.302-3.435
		c-1.775-10.35-1.504-20.77-0.961-31.181c0.201-3.812,0.749-7.629,1.463-11.386c0.347-1.831,1.187-3.686,2.238-5.235
		c2.726-4.018,8.273-3.923,10.486,0.392c1.363,2.655,2.082,5.809,2.379,8.811c1.066,10.798-0.181,21.48-2.183,32.091
		C0.542-9.828-0.057-7.082-0.61-4.331C-0.69-3.934-0.821-3.496-0.74-3.119C1.548,7.417,9.293,16.962,19.572,18.421
		c5.155,0.729,10.35,1.192,15.48,2.052c5.396,0.905,10.752,2.077,16.093,3.274c2.761,0.619,4.456,3.5,3.893,6.146
		c-0.609,2.867-3.168,4.783-6.08,4.265c-5.185-0.925-10.32-2.173-15.515-3.017c-5.406-0.88-10.898-1.252-16.289-2.198
		c-8.957-1.564-15.812-6.573-21.218-13.73c-0.372-0.493-0.729-0.991-1.111-1.474c-0.075-0.096-0.236-0.116-0.322-0.156
		c-1.438,3.017-2.6,6.206-4.38,9.002c-2.152,3.38-4.476,6.799-7.358,9.53c-5.597,5.311-11.824,5.366-18.175,0.699
		c-0.568,1.423-1.121,2.801-1.66,4.179c-2.238,5.778-4.924,11.316-9.017,16.038c-3.304,3.812-7.202,6.784-12.291,7.725
		c-8.917,1.65-17.708-3.727-20.584-12.502c-3.254-9.928,0.186-21.635,8.545-27.867c2.283-1.705,5.14-2.887,7.911-3.631
		c3.968-1.061,7.544,0.352,10.038,3.606C-50.142,23.395-48.186,26.694-45.842,30.219z M-48.175,36.948
		c-0.201-0.156-0.397-0.312-0.598-0.468c-4.395,1.031-5.778,0.422-8.233-3.601c-0.82-1.348-1.725-2.645-2.459-4.033
		c-0.845-1.604-1.861-1.715-3.304-0.769c-4.924,3.219-6.724,7.936-6.538,13.569c0.126,3.782,1.645,6.84,5.356,8.263
		c3.636,1.388,6.563-0.352,8.731-2.972C-52.621,43.808-50.499,40.298-48.175,36.948z"/>
	<path fill="#FFFFFF" d="M295.301,36.928c0.03,2.967-2.288,5.346-5.25,5.391c-3.073,0.045-5.507-2.349-5.482-5.381
		c0.03-2.912,2.469-5.346,5.366-5.351C292.836,31.582,295.271,34.001,295.301,36.928z"/>
</g>
</svg>
