<?xml version="1.0" encoding="utf-8"?>
<!-- Generator: Adobe Illustrator 17.0.0, SVG Export Plug-In . SVG Version: 6.00 Build 0)  -->
<!DOCTYPE svg PUBLIC "-//W3C//DTD SVG 1.1//EN" "http://www.w3.org/Graphics/SVG/1.1/DTD/svg11.dtd">
<svg version="1.1" id="Layer_1" xmlns="http://www.w3.org/2000/svg" xmlns:xlink="http://www.w3.org/1999/xlink" x="0px" y="0px"
	 width="600px" height="95px" viewBox="0 0 600 95" enable-background="new 0 0 600 95" xml:space="preserve">
<g>
	<g>
		<path fill-rule="evenodd" clip-rule="evenodd" fill="#FFFFFF" d="M11.297,90.88c30.787-19.775,65.684-5.55,83.067,3.97
			C70.286,85.34,34.986,83.11,11.297,90.88z"/>
		<path fill-rule="evenodd" clip-rule="evenodd" fill="#FFFFFF" d="M65.344,0.308c14.793,0,27.525,8.721,33.21,21.239H86.981
			c-5.108-6.301-12.963-10.339-21.773-10.339c-8.664,0-16.404,3.903-21.517,10.026c0.275-0.219,0.554-0.436,0.848-0.645
			c12.094-8.633,28.223,0.882,28.223,0.882s-15.326-4.43-25.691,2.834c-10.361,7.266-8.696,21.81-8.696,21.81
			s-0.068-0.193-0.173-0.543c0.043,0.167,0.088,0.334,0.135,0.501c-2.485-1.831-5.498-3.026-8.778-3.34
			c-0.391-2.11-0.596-4.281-0.596-6.501C28.964,16.393,45.251,0.308,65.344,0.308L65.344,0.308z M18.819,82.488v-3.107
			c9.623-7.103,27.328-16.346,48.616-9.674c32.353,10.138,52.943,23.93,77.944,17.722c25.002-6.206,27.208-19.863,27.208-19.863
			s-4.413,19.287-29.047,23.52c-24.632,4.233-47.324-0.512-76.185-11.272C47.876,72.552,29.021,78.184,18.819,82.488L18.819,82.488z
			 M18.819,76.251c1.79-1.209,3.618-2.35,5.29-3.218c-0.817-0.521-1.582-1.114-2.272-1.793c-1.284-1.262-2.269-2.67-3.018-4.123
			v6.679l0.197,0.194c0.321,0.303,0.659,0.587,1.005,0.85c-0.411-0.195-0.811-0.406-1.202-0.63V76.251L18.819,76.251z
			 M18.819,45.103V33.667c2.353-0.804,4.853-1.29,7.453-1.406c-0.134,1.306-0.202,2.632-0.202,3.974c0,2.254,0.195,4.462,0.57,6.611
			C23.796,42.966,21.135,43.773,18.819,45.103z M18.819,33.667v11.437c-5.071,2.916-8.479,8.341-8.479,14.554
			c0,6.212,3.408,11.636,8.479,14.553v2.04c-2.043,1.382-4.037,2.855-5.686,4.12C5.834,75.714,1,67.609,1,58.389
			C1,46.941,8.447,37.213,18.819,33.667L18.819,33.667z M18.819,67.117c-3.243-6.28-2.125-13.408-2.125-13.408
			s-5.491,12.59,2.125,20.087V67.117L18.819,67.117z M18.819,79.381c-5.002,3.693-7.82,6.808-7.82,6.808
			c0,0.134,2.908-1.629,7.82-3.701V79.381z"/>
		<path fill-rule="evenodd" clip-rule="evenodd" fill="#FFFFFF" d="M100.188,74.462c0,0,15.442,7.906,29.964,6.618
			c14.522-1.287,18.934-6.434,18.934-6.434s-5.331,9.835-19.301,10.386C115.813,85.584,100.188,74.83,100.188,74.462z"/>
		<rect x="88.348" y="24.517" fill-rule="evenodd" clip-rule="evenodd" fill="#FFFFFF" width="12.981" height="12.979"/>
		<rect x="139.896" y="60.479" fill-rule="evenodd" clip-rule="evenodd" fill="#FFFFFF" width="10.039" height="10.039"/>
		<rect x="103.99" y="12.624" fill-rule="evenodd" clip-rule="evenodd" fill="#FFFFFF" width="17.309" height="17.306"/>
		<rect x="154.24" y="42.575" fill-rule="evenodd" clip-rule="evenodd" fill="#FFFFFF" width="17.311" height="17.306"/>
		<rect x="122.959" y="31.261" fill-rule="evenodd" clip-rule="evenodd" fill="#FFFFFF" width="9.649" height="9.648"/>
		<rect x="129.412" y="50.267" fill-rule="evenodd" clip-rule="evenodd" fill="#FFFFFF" width="9.649" height="9.648"/>
		<rect x="109.098" y="51.229" fill-rule="evenodd" clip-rule="evenodd" fill="#FFFFFF" width="9.651" height="9.649"/>
		<rect x="142.926" y="31.594" fill-rule="evenodd" clip-rule="evenodd" fill="#FFFFFF" width="9.649" height="9.649"/>
	</g>
	<g>
		<path fill="#FFFFFF" d="M250.052,50.913c0,4.046-0.675,7.762-2.023,11.146c-1.349,3.385-3.245,6.299-5.688,8.742
			c-2.443,2.443-5.382,4.339-8.818,5.688c-3.436,1.35-7.24,2.023-11.414,2.023h-21.072v-55.2h21.072
			c4.174,0,7.979,0.681,11.414,2.042c3.436,1.362,6.375,3.258,8.818,5.688c2.443,2.431,4.339,5.338,5.688,8.723
			C249.377,43.151,250.052,46.866,250.052,50.913z M239.554,50.913c0-3.029-0.407-5.746-1.222-8.15
			c-0.815-2.405-1.973-4.441-3.474-6.108c-1.502-1.667-3.328-2.946-5.478-3.837c-2.151-0.89-4.575-1.336-7.273-1.336h-10.727v38.862
			h10.727c2.697,0,5.122-0.445,7.273-1.337c2.15-0.89,3.976-2.169,5.478-3.836c1.501-1.667,2.659-3.703,3.474-6.108
			C239.146,56.658,239.554,53.941,239.554,50.913z"/>
		<path fill="#FFFFFF" d="M265.206,27.932c0,0.815-0.165,1.579-0.496,2.291c-0.331,0.713-0.77,1.336-1.317,1.871
			c-0.548,0.535-1.19,0.961-1.928,1.279c-0.738,0.318-1.527,0.477-2.367,0.477c-0.814,0-1.584-0.159-2.31-0.477
			c-0.725-0.318-1.355-0.744-1.89-1.279c-0.534-0.535-0.961-1.158-1.279-1.871c-0.318-0.712-0.477-1.476-0.477-2.291
			c0-0.84,0.159-1.628,0.477-2.367c0.318-0.738,0.745-1.374,1.279-1.909c0.535-0.534,1.165-0.96,1.89-1.279
			c0.725-0.318,1.495-0.477,2.31-0.477c0.84,0,1.628,0.159,2.367,0.477c0.738,0.318,1.38,0.745,1.928,1.279
			c0.547,0.535,0.986,1.171,1.317,1.909C265.041,26.303,265.206,27.092,265.206,27.932z M263.794,39.346v39.167h-9.429V39.346
			H263.794z"/>
		<path fill="#FFFFFF" d="M284.179,38.659c1.68,0,3.257,0.172,4.734,0.516c1.476,0.343,2.825,0.846,4.046,1.508h11.262v3.512
			c0,0.586-0.153,1.044-0.459,1.375c-0.305,0.331-0.827,0.56-1.564,0.687l-3.512,0.649c0.254,0.662,0.452,1.361,0.592,2.1
			c0.139,0.738,0.21,1.515,0.21,2.329c0,1.934-0.389,3.684-1.164,5.249c-0.776,1.564-1.845,2.895-3.207,3.988
			c-1.362,1.095-2.978,1.941-4.848,2.539c-1.871,0.599-3.9,0.897-6.089,0.897c-1.476,0-2.914-0.14-4.313-0.42
			c-1.222,0.743-1.833,1.577-1.833,2.499c0,0.795,0.363,1.378,1.088,1.75c0.726,0.371,1.68,0.634,2.863,0.788
			c1.183,0.153,2.525,0.23,4.027,0.23c1.501,0,3.041,0.063,4.619,0.191c1.578,0.128,3.117,0.352,4.619,0.671
			c1.501,0.318,2.844,0.823,4.027,1.513c1.183,0.689,2.137,1.628,2.863,2.815c0.726,1.187,1.088,2.712,1.088,4.576
			c0,1.736-0.427,3.421-1.278,5.056c-0.853,1.634-2.087,3.089-3.703,4.366c-1.617,1.275-3.595,2.303-5.936,3.083
			c-2.342,0.778-5.014,1.168-8.017,1.168c-2.978,0-5.561-0.287-7.75-0.859c-2.189-0.572-4.002-1.336-5.44-2.29
			c-1.438-0.955-2.514-2.056-3.226-3.303c-0.713-1.247-1.069-2.545-1.069-3.894c0-1.832,0.559-3.372,1.68-4.619
			c1.12-1.246,2.672-2.239,4.657-2.978c-0.968-0.534-1.744-1.246-2.329-2.138c-0.586-0.891-0.878-2.048-0.878-3.474
			c0-0.585,0.101-1.189,0.305-1.813c0.204-0.623,0.516-1.24,0.936-1.852c0.419-0.61,0.948-1.19,1.584-1.736
			c0.636-0.548,1.387-1.037,2.253-1.47c-1.985-1.069-3.544-2.494-4.676-4.276c-1.133-1.78-1.699-3.868-1.699-6.26
			c0-1.935,0.388-3.684,1.165-5.25c0.776-1.565,1.857-2.901,3.245-4.008c1.387-1.107,3.028-1.953,4.925-2.539
			C279.871,38.952,281.939,38.659,284.179,38.659z M294.524,80.157c0-0.779-0.229-1.416-0.687-1.909
			c-0.458-0.494-1.082-0.877-1.871-1.15c-0.789-0.273-1.712-0.474-2.768-0.604c-1.057-0.13-2.176-0.194-3.359-0.194
			c-1.184,0-2.405,0-3.665,0s-2.476-0.14-3.646-0.42c-1.069,0.586-1.928,1.278-2.577,2.08c-0.649,0.802-0.973,1.724-0.973,2.768
			c0,0.688,0.171,1.33,0.515,1.928c0.344,0.598,0.891,1.113,1.642,1.546c0.75,0.433,1.724,0.77,2.921,1.012
			c1.196,0.242,2.659,0.363,4.39,0.363c1.756,0,3.27-0.137,4.543-0.409c1.272-0.273,2.322-0.649,3.149-1.131
			c0.827-0.48,1.432-1.053,1.813-1.715C294.333,81.657,294.524,80.937,294.524,80.157z M284.179,57.975
			c1.17,0,2.189-0.158,3.054-0.477c0.865-0.318,1.584-0.757,2.157-1.317c0.573-0.56,1.005-1.234,1.298-2.023
			c0.293-0.788,0.439-1.653,0.439-2.596c0-1.934-0.579-3.468-1.737-4.6c-1.159-1.132-2.896-1.699-5.211-1.699
			c-2.316,0-4.053,0.567-5.211,1.699c-1.158,1.132-1.737,2.667-1.737,4.6c0,0.916,0.146,1.77,0.439,2.558
			c0.293,0.789,0.726,1.47,1.298,2.043c0.573,0.572,1.298,1.018,2.176,1.336C282.022,57.816,283.034,57.975,284.179,57.975z"/>
		<path fill="#FFFFFF" d="M317.771,27.932c0,0.815-0.166,1.579-0.496,2.291c-0.331,0.713-0.771,1.336-1.317,1.871
			c-0.547,0.535-1.189,0.961-1.928,1.279c-0.738,0.318-1.526,0.477-2.366,0.477c-0.815,0-1.585-0.159-2.31-0.477
			c-0.726-0.318-1.355-0.744-1.89-1.279c-0.535-0.535-0.961-1.158-1.279-1.871c-0.318-0.712-0.477-1.476-0.477-2.291
			c0-0.84,0.159-1.628,0.477-2.367c0.318-0.738,0.744-1.374,1.279-1.909c0.534-0.534,1.164-0.96,1.89-1.279
			c0.725-0.318,1.494-0.477,2.31-0.477c0.84,0,1.628,0.159,2.366,0.477c0.738,0.318,1.381,0.745,1.928,1.279
			c0.547,0.535,0.986,1.171,1.317,1.909C317.605,26.303,317.771,27.092,317.771,27.932z M316.359,39.346v39.167h-9.43V39.346
			H316.359z"/>
		<path fill="#FFFFFF" d="M336.057,79.123c-3.385,0-5.993-0.96-7.825-2.882c-1.832-1.921-2.749-4.574-2.749-7.959V46.408h-3.97
			c-0.51,0-0.948-0.166-1.317-0.496c-0.369-0.331-0.553-0.827-0.553-1.489v-3.741l6.298-1.031l1.985-10.689
			c0.102-0.509,0.337-0.903,0.706-1.183c0.369-0.28,0.834-0.42,1.394-0.42h4.887v12.33h10.307v6.719h-10.307v21.225
			c0,1.222,0.305,2.176,0.916,2.863c0.61,0.688,1.425,1.03,2.443,1.03c0.585,0,1.074-0.069,1.47-0.21
			c0.394-0.139,0.737-0.286,1.03-0.438c0.292-0.152,0.554-0.299,0.782-0.439c0.23-0.14,0.459-0.21,0.688-0.21
			c0.28,0,0.509,0.07,0.688,0.21c0.178,0.141,0.368,0.351,0.572,0.63l2.825,4.581c-1.375,1.146-2.953,2.011-4.733,2.596
			C339.81,78.831,337.966,79.123,336.057,79.123z"/>
		<path fill="#FFFFFF" d="M379.613,78.513h-4.237c-0.892,0-1.591-0.134-2.1-0.4c-0.51-0.268-0.892-0.808-1.146-1.623l-0.84-2.786
			c-0.992,0.891-1.966,1.673-2.92,2.348c-0.955,0.674-1.941,1.24-2.959,1.698c-1.018,0.458-2.1,0.802-3.245,1.031
			c-1.145,0.229-2.418,0.343-3.817,0.343c-1.654,0-3.182-0.224-4.581-0.669c-1.4-0.447-2.602-1.117-3.607-2.011
			c-1.005-0.894-1.788-2.005-2.348-3.333c-0.56-1.328-0.84-2.872-0.84-4.635c0-1.48,0.388-2.942,1.165-4.386
			c0.775-1.442,2.067-2.744,3.874-3.906c1.807-1.162,4.212-2.126,7.215-2.892c3.003-0.766,6.732-1.149,11.186-1.149v-2.308
			c0-2.642-0.554-4.597-1.661-5.866c-1.107-1.27-2.717-1.904-4.829-1.904c-1.526,0-2.8,0.178-3.817,0.535
			c-1.018,0.357-1.902,0.757-2.652,1.202c-0.751,0.446-1.445,0.846-2.081,1.203c-0.636,0.357-1.336,0.534-2.1,0.534
			c-0.636,0-1.184-0.165-1.642-0.496c-0.458-0.33-0.827-0.737-1.107-1.221l-1.718-3.016c4.504-4.123,9.938-6.184,16.3-6.184
			c2.291,0,4.333,0.376,6.127,1.126c1.795,0.751,3.314,1.794,4.562,3.13c1.246,1.336,2.194,2.934,2.844,4.791
			c0.648,1.858,0.974,3.894,0.974,6.107V78.513z M361.289,72.634c0.967,0,1.857-0.088,2.673-0.263
			c0.814-0.176,1.584-0.438,2.31-0.789c0.725-0.352,1.425-0.783,2.1-1.297c0.674-0.513,1.354-1.121,2.042-1.822v-6.556
			c-2.749,0-5.046,0.173-6.891,0.519c-1.846,0.346-3.328,0.789-4.447,1.326c-1.12,0.539-1.915,1.167-2.386,1.885
			c-0.472,0.718-0.706,1.499-0.706,2.345c0,1.666,0.489,2.858,1.47,3.576C358.433,72.275,359.711,72.634,361.289,72.634z"/>
		<path fill="#FFFFFF" d="M395.112,21.786v56.727h-9.43V21.786H395.112z"/>
		<path fill="#FFFFFF" d="M455.428,50.913c0,4.046-0.675,7.794-2.023,11.242c-1.35,3.448-3.245,6.432-5.689,8.951
			c-2.442,2.52-5.382,4.486-8.818,5.898c-3.436,1.412-7.24,2.118-11.414,2.118s-7.984-0.706-11.433-2.118
			c-3.449-1.412-6.401-3.379-8.857-5.898c-2.456-2.52-4.358-5.503-5.707-8.951c-1.35-3.448-2.023-7.196-2.023-11.242
			c0-4.047,0.674-7.794,2.023-11.243c1.349-3.448,3.251-6.433,5.707-8.952c2.455-2.52,5.407-4.486,8.857-5.898
			c3.448-1.413,7.259-2.119,11.433-2.119s7.978,0.712,11.414,2.138c3.437,1.425,6.376,3.392,8.818,5.898
			c2.443,2.507,4.339,5.484,5.689,8.933C454.753,43.119,455.428,46.866,455.428,50.913z M444.892,50.913
			c0-3.029-0.401-5.746-1.203-8.15c-0.802-2.405-1.953-4.447-3.454-6.127c-1.502-1.68-3.328-2.965-5.478-3.856
			c-2.15-0.891-4.575-1.336-7.272-1.336s-5.128,0.445-7.291,1.336c-2.163,0.891-4.002,2.176-5.516,3.856
			c-1.515,1.68-2.679,3.722-3.493,6.127c-0.815,2.405-1.222,5.122-1.222,8.15c0,3.028,0.406,5.745,1.222,8.149
			c0.814,2.405,1.978,4.441,3.493,6.108c1.514,1.667,3.353,2.946,5.516,3.836c2.163,0.892,4.594,1.337,7.291,1.337
			s5.122-0.445,7.272-1.337c2.15-0.89,3.977-2.169,5.478-3.836c1.501-1.667,2.652-3.703,3.454-6.108
			C444.49,56.658,444.892,53.941,444.892,50.913z"/>
		<path fill="#FFFFFF" d="M486.692,47.63c-0.28,0.356-0.554,0.636-0.82,0.84c-0.268,0.204-0.656,0.306-1.165,0.306
			c-0.483,0-0.954-0.146-1.412-0.439c-0.458-0.293-1.006-0.624-1.642-0.993c-0.636-0.369-1.393-0.7-2.272-0.992
			c-0.878-0.292-1.966-0.439-3.264-0.439c-1.654,0-3.105,0.299-4.352,0.897c-1.247,0.598-2.285,1.456-3.111,2.577
			c-0.827,1.12-1.444,2.476-1.852,4.065c-0.407,1.591-0.61,3.392-0.61,5.401c0,2.088,0.222,3.945,0.668,5.574
			c0.444,1.629,1.088,2.996,1.928,4.103c0.84,1.106,1.857,1.946,3.054,2.52c1.196,0.572,2.545,0.858,4.047,0.858
			c1.501,0,2.716-0.184,3.646-0.553c0.929-0.369,1.711-0.776,2.348-1.222c0.636-0.445,1.19-0.852,1.66-1.222
			c0.471-0.369,0.999-0.554,1.584-0.554c0.764,0,1.337,0.293,1.719,0.878l2.71,3.436c-1.044,1.222-2.176,2.246-3.398,3.073
			c-1.222,0.827-2.488,1.488-3.799,1.985c-1.311,0.496-2.666,0.846-4.065,1.05c-1.399,0.203-2.786,0.305-4.161,0.305
			c-2.418,0-4.695-0.452-6.833-1.354c-2.138-0.903-4.002-2.221-5.593-3.951c-1.591-1.73-2.851-3.85-3.779-6.356
			c-0.929-2.506-1.392-5.363-1.392-8.57c0-2.875,0.413-5.541,1.24-7.997c0.827-2.455,2.042-4.581,3.646-6.375
			c1.603-1.794,3.589-3.2,5.955-4.218c2.367-1.018,5.09-1.527,8.17-1.527c2.926,0,5.49,0.471,7.691,1.412
			c2.201,0.942,4.181,2.291,5.937,4.046L486.692,47.63z"/>
		<path fill="#FFFFFF" d="M507.954,38.735c2.469,0,4.74,0.395,6.815,1.183c2.074,0.789,3.861,1.941,5.363,3.455
			c1.502,1.515,2.672,3.373,3.512,5.573c0.84,2.202,1.26,4.715,1.26,7.54c0,0.713-0.032,1.305-0.095,1.775
			c-0.065,0.471-0.179,0.84-0.344,1.106c-0.166,0.268-0.389,0.458-0.668,0.572c-0.28,0.115-0.637,0.172-1.069,0.172h-24.202
			c0.279,4.021,1.361,6.974,3.245,8.857c1.883,1.884,4.377,2.825,7.482,2.825c1.527,0,2.845-0.178,3.951-0.534
			c1.107-0.357,2.074-0.751,2.901-1.184c0.827-0.433,1.552-0.827,2.176-1.184c0.624-0.355,1.228-0.534,1.814-0.534
			c0.382,0,0.712,0.076,0.992,0.229c0.28,0.153,0.521,0.37,0.726,0.649l2.749,3.436c-1.044,1.222-2.215,2.246-3.513,3.073
			c-1.298,0.827-2.652,1.488-4.066,1.985c-1.412,0.496-2.851,0.846-4.313,1.05c-1.464,0.203-2.882,0.305-4.257,0.305
			c-2.723,0-5.255-0.452-7.597-1.354c-2.342-0.903-4.377-2.239-6.107-4.009c-1.731-1.769-3.092-3.957-4.085-6.565
			c-0.992-2.608-1.488-5.631-1.488-9.067c0-2.673,0.433-5.186,1.298-7.54c0.864-2.354,2.105-4.402,3.722-6.146
			c1.616-1.743,3.589-3.124,5.917-4.142C502.4,39.245,505.027,38.735,507.954,38.735z M508.145,45.492
			c-2.749,0-4.899,0.776-6.452,2.329c-1.552,1.552-2.545,3.754-2.978,6.604h17.713c0-1.222-0.165-2.373-0.496-3.455
			c-0.331-1.081-0.84-2.029-1.526-2.844c-0.688-0.814-1.553-1.457-2.597-1.928C510.767,45.728,509.545,45.492,508.145,45.492z"/>
		<path fill="#FFFFFF" d="M559.45,78.513h-4.237c-0.892,0-1.591-0.134-2.1-0.4c-0.51-0.268-0.892-0.808-1.146-1.623l-0.84-2.786
			c-0.992,0.891-1.966,1.673-2.92,2.348c-0.955,0.674-1.941,1.24-2.959,1.698c-1.019,0.458-2.1,0.802-3.245,1.031
			c-1.145,0.229-2.418,0.343-3.817,0.343c-1.654,0-3.182-0.224-4.581-0.669c-1.399-0.447-2.602-1.117-3.607-2.011
			c-1.005-0.894-1.788-2.005-2.348-3.333c-0.56-1.328-0.84-2.872-0.84-4.635c0-1.48,0.388-2.942,1.165-4.386
			c0.775-1.442,2.067-2.744,3.874-3.906c1.807-1.162,4.212-2.126,7.215-2.892c3.003-0.766,6.731-1.149,11.185-1.149v-2.308
			c0-2.642-0.554-4.597-1.661-5.866c-1.107-1.27-2.717-1.904-4.829-1.904c-1.526,0-2.8,0.178-3.817,0.535
			c-1.018,0.357-1.902,0.757-2.652,1.202c-0.751,0.446-1.445,0.846-2.081,1.203c-0.636,0.357-1.336,0.534-2.1,0.534
			c-0.636,0-1.184-0.165-1.642-0.496c-0.458-0.33-0.827-0.737-1.107-1.221l-1.718-3.016c4.504-4.123,9.938-6.184,16.3-6.184
			c2.291,0,4.333,0.376,6.127,1.126c1.795,0.751,3.314,1.794,4.562,3.13c1.246,1.336,2.194,2.934,2.844,4.791
			c0.648,1.858,0.974,3.894,0.974,6.107V78.513z M541.126,72.634c0.967,0,1.857-0.088,2.673-0.263
			c0.814-0.176,1.584-0.438,2.31-0.789c0.725-0.352,1.425-0.783,2.1-1.297c0.674-0.513,1.354-1.121,2.042-1.822v-6.556
			c-2.749,0-5.046,0.173-6.891,0.519c-1.846,0.346-3.328,0.789-4.447,1.326c-1.12,0.539-1.915,1.167-2.386,1.885
			c-0.472,0.718-0.706,1.499-0.706,2.345c0,1.666,0.489,2.858,1.47,3.576C538.269,72.275,539.548,72.634,541.126,72.634z"/>
		<path fill="#FFFFFF" d="M564.908,78.513V39.346h5.765c1.221,0,2.022,0.573,2.404,1.718l0.649,3.092
			c0.788-0.814,1.622-1.552,2.5-2.214c0.878-0.662,1.807-1.234,2.787-1.718c0.979-0.483,2.029-0.852,3.149-1.107
			c1.119-0.254,2.341-0.381,3.665-0.381c2.138,0,4.033,0.362,5.688,1.088c1.654,0.725,3.035,1.743,4.142,3.054
			c1.107,1.311,1.947,2.876,2.52,4.695c0.573,1.82,0.859,3.824,0.859,6.013v24.928h-9.43V53.585c0-2.392-0.553-4.243-1.66-5.554
			c-1.107-1.311-2.768-1.967-4.982-1.967c-1.629,0-3.156,0.369-4.581,1.107c-1.426,0.739-2.774,1.744-4.047,3.016v28.325H564.908z"
			/>
	</g>
</g>
<g>
</g>
<g>
</g>
<g>
</g>
<g>
</g>
<g>
</g>
<g>
</g>
</svg>
